<svg width="109" height="108" viewBox="0 0 109 108" fill="none" xmlns="http://www.w3.org/2000/svg">
<circle cx="54.4487" cy="54" r="54" fill="#03B4A1"/>
<path fill-rule="evenodd" clip-rule="evenodd" d="M72.0622 25.9022C67.6874 23.7212 62.5647 23.6187 58.1061 25.6228L31.2703 37.6857C29.475 38.4927 28.3202 40.2778 28.3202 42.2461V45.4274C28.3202 47.3234 29.3926 49.0563 31.0894 49.9022L52.7824 60.717C54.1871 61.4173 55.8393 61.4173 57.244 60.717L79.1271 49.8074C82.9702 47.8915 87.4868 50.6865 87.4868 54.9808V59.0562C87.4868 61.2482 86.247 63.2516 84.2853 64.2296L57.5923 77.5371C55.9682 78.3468 54.0582 78.3468 52.4341 77.5371L31.6392 67.1701C30.1134 66.4094 28.3202 67.5191 28.3202 69.224C28.3202 70.0943 28.8124 70.8897 29.5913 71.278L52.8091 82.853C54.2043 83.5485 55.8441 83.5535 57.2435 82.8665L75.4646 73.9206C76.8975 73.2171 78.6294 73.8084 79.3329 75.2413C80.0364 76.6742 79.4451 78.4061 78.0122 79.1096L57.5706 89.1457C55.9527 89.94 54.0569 89.9342 52.4439 89.1301L25.7411 75.8177C23.7793 74.8397 22.5396 72.8363 22.5396 70.6443V65.5154C22.5396 61.2211 27.0562 58.4261 30.8993 60.342L52.7824 71.2516C54.1871 71.9519 55.8393 71.9519 57.244 71.2516L80.6962 59.5597C81.3151 59.2512 81.7062 58.6192 81.7062 57.9277C81.7062 56.573 80.2813 55.6912 79.0689 56.2956L57.5923 67.0025C55.9682 67.8122 54.0582 67.8122 52.4341 67.0025L25.7411 53.695C23.7793 52.717 22.5396 50.7136 22.5396 48.5216V39.0117C22.5396 36.7361 23.8746 34.6722 25.9502 33.7393L55.7361 20.3504C61.7758 17.6355 68.7151 17.7744 74.6413 20.7289C85.4522 26.1185 85.2268 41.6208 74.2638 46.6939L57.4999 54.4513C55.8924 55.1952 54.0325 55.161 52.4534 54.3585L36.6009 46.3029C35.1779 45.5797 34.6105 43.8399 35.3336 42.4168C36.0568 40.9937 37.7966 40.4263 39.2197 41.1495L52.9092 48.106C54.2751 48.8 55.8837 48.8296 57.2742 48.1862L71.8362 41.4477C78.3998 38.4104 78.5348 29.1291 72.0622 25.9022Z" fill="white"/>
</svg>
